<svg xmlns="http://www.w3.org/2000/svg" width="128" height="128" viewBox="0 0 24 24" fill="none" stroke="#1f214d" stroke-width="1.5" stroke-linecap="round" stroke-linejoin="round"><circle cx="12" cy="12" r="10" fill="#e9ecff"/><path d="M7 10c0-1.657 1.79-3 5-3s5 1.343 5 3v4c0 1-1 2-2 2s-2-1-2-2v-2" fill="#fff"/><path d="M7 10v4c0 1 1 2 2 2s2-1 2-2v-2"/><path d="M12 17c1.5 2 0 3.5-1.25 3.5S8.5 19.5 10 17" fill="#d0d6ff"/><circle cx="10" cy="11" r="1"/><circle cx="14" cy="11" r="1"/><path d="M5 12c-1 0-2 .5-2 2s1.5 2 3 2M19 12c1 0 2 .5 2 2s-1.5 2-3 2"/></svg>